<svg id="Layer_1" data-name="Layer 1" xmlns="http://www.w3.org/2000/svg" xmlns:xlink="http://www.w3.org/1999/xlink" viewBox="0 0 1269.26 501.55"><defs><style>.cls-1{fill:#fff;stroke:#231f20;stroke-miterlimit:10;}</style></defs><rect class="cls-1" x="0.5" y="413.82" width="1268.26" height="87.24" rx="43.62"/><image width="2000" height="2000" transform="translate(443.18 424.85) scale(0.03 0.03)" xlink:href="D:%5Ckuliah%5CLogo%20Ekstra%5CIMG_1551112506258.png"/><image width="296" height="385" transform="translate(32.97 418.34) scale(0.22 0.2)" xlink:href="D:%5Ckuliah%5CLogo%20Ekstra%5CPALANG%20MERAH%20REMAJA%20SMA.png"/><image width="2287" height="2096" transform="translate(191.84 424.85) scale(0.03 0.03)" xlink:href="D:%5Ckuliah%5CLogo%20Ekstra%5Cppk.png"/><image width="299" height="300" transform="translate(112.41 424.85) scale(0.22 0.22)" xlink:href="D:%5Ckuliah%5CLogo%20Ekstra%5Cpramuka-logohd-38028.png"/><image width="13390" height="13348" transform="translate(999.22 418.34) scale(0.01 0.01)" xlink:href="D:%5Ckuliah%5CLogo%20Ekstra%5CUntitled-4.png"/><image width="10712" height="11018" transform="translate(1091.68 424.85) scale(0.01 0.01)" xlink:href="D:%5Ckuliah%5CLogo%20Ekstra%5CUntitled-5.png"/><image width="10440" height="12010" transform="translate(1171.12 418.34) scale(0.01 0.01)" xlink:href="D:%5Ckuliah%5CLogo%20Ekstra%5CUntitled-6.png"/><image width="10682" height="10682" transform="translate(919.78 424.85) scale(0.01 0.01)" xlink:href="D:%5Ckuliah%5CLogo%20Ekstra%5CUntitled-7.png"/><image width="8966" height="11008" transform="translate(760.91 418.34) scale(0.01 0.01)" xlink:href="D:%5Ckuliah%5CLogo%20Ekstra%5CUntitled-8.png"/><image width="8836" height="11364" transform="translate(840.35 418.34) scale(0.01 0.01)" xlink:href="D:%5Ckuliah%5CLogo%20Ekstra%5CUntitled-9.png"/><image width="10814" height="10814" transform="translate(681.48 424.85) scale(0.01 0.01)" xlink:href="D:%5Ckuliah%5CLogo%20Ekstra%5CUntitled-10.png"/><image width="10360" height="10710" transform="translate(602.05 424.85) scale(0.01 0.01)" xlink:href="D:%5Ckuliah%5CLogo%20Ekstra%5CUntitled-11.png"/><image width="11300" height="8474" transform="translate(350.71 424.85) scale(0.01 0.01)" xlink:href="D:%5Ckuliah%5CLogo%20Ekstra%5CUntitled-12.png"/><image width="10262" height="10408" transform="translate(522.61 424.85) scale(0.01 0.01)" xlink:href="D:%5Ckuliah%5CLogo%20Ekstra%5CUntitled-13.png"/><image width="10964" height="11366" transform="translate(271.27 424.85) scale(0.01 0.01)" xlink:href="D:%5Ckuliah%5CLogo%20Ekstra%5CUntitled-14.png"/><image width="3000" height="2894" transform="translate(487.54) scale(0.1)" xlink:href="logo_smansa.png"/><image width="2541" height="417" transform="translate(386.95 308.15) scale(0.19)" xlink:href="logo_spekta_baru.png"/></svg>